<?xml version="1.0" encoding="UTF-8"?>
<svg width="20px" height="21px" viewBox="0 0 20 21" version="1.1" xmlns="http://www.w3.org/2000/svg" xmlns:xlink="http://www.w3.org/1999/xlink">
    <title>关闭</title>
    <g id="页面-1" stroke="none" stroke-width="1" fill="none" fill-rule="evenodd">
        <g id="兼容管控" transform="translate(-1860.000000, -34.000000)" fill-rule="nonzero">
            <g id="编组-38" transform="translate(-0.461667, -1.000000)">
                <g id="编组-43" transform="translate(1689.461667, 33.456653)">
                    <g id="关闭备份" transform="translate(171.000000, 2.500000)">
                        <rect id="矩形" fill="#000000" opacity="0" x="0" y="0" width="20" height="20"></rect>
                        <path d="M10.5367267,9.83881571 L15.7261441,4.64989189 C15.8508139,4.5252221 15.899503,4.34351192 15.8538707,4.17320981 C15.8082384,4.00290771 15.6752173,3.86988662 15.5049152,3.82425431 C15.3346131,3.778622 15.1529029,3.8273111 15.0282331,3.95198089 L9.83881571,9.14090472 L4.64989189,3.95198089 C4.5252221,3.8273111 4.34351192,3.77862201 4.17320982,3.82425432 C4.00290771,3.86988663 3.86988663,4.00290771 3.82425432,4.17320981 C3.77862201,4.34351192 3.8273111,4.5252221 3.9519809,4.64989189 L9.14090472,9.83881571 L3.9519809,15.0277395 C3.7592581,15.2204623 3.7592581,15.5329277 3.9519809,15.7256505 C4.14470369,15.9183733 4.45716909,15.9183733 4.64989189,15.7256505 L9.83881571,10.5367267 L15.0277395,15.7261441 C15.1524093,15.8508139 15.3341195,15.899503 15.5044216,15.8538707 C15.6747237,15.8082384 15.8077448,15.6752173 15.8533771,15.5049152 C15.8990094,15.3346131 15.8503203,15.1529029 15.7256505,15.0282331 L10.5367267,9.83881571 Z" id="路径" stroke="#FFFFFF" stroke-width="0.5" fill="#FFFFFF"></path>
                    </g>
                </g>
            </g>
        </g>
    </g>
</svg>