<?xml version="1.0" encoding="UTF-8"?>
<svg width="20px" height="21px" viewBox="0 0 20 21" version="1.1" xmlns="http://www.w3.org/2000/svg" xmlns:xlink="http://www.w3.org/1999/xlink">
    <title>最大化</title>
    <defs>
        <path d="M10.5039488,1.4960512 L10.5039488,1.4960512 L10.5039488,10.5039488 L1.4960512,10.5039488 L1.4960512,1.4960512 L10.5039488,1.4960512 L10.5039488,1.4960512 Z M11,0 L1,0 C0.4,0 0,0.4 0,1 L0,11 C0,11.6 0.4,12 1,12 L11,12 C11.6,12 12,11.6 12,11 L12,1 C12,0.4 11.6,0 11,0 L11,0 Z" id="path-1"></path>
    </defs>
    <g id="页面-1" stroke="none" stroke-width="1" fill="none" fill-rule="evenodd">
        <g id="兼容管控" transform="translate(-1822.000000, -34.000000)">
            <g id="编组-38" transform="translate(-0.461667, -1.000000)">
                <g id="编组-43" transform="translate(1689.461667, 33.456653)">
                    <g id="Icon-Button" transform="translate(133.000000, 2.500000)">
                        <path d="M2,0 L18,0 C19.1045695,-2.02906125e-16 20,0.8954305 20,2 L20,18 C20,19.1045695 19.1045695,20 18,20 L2,20 C0.8954305,20 1.3527075e-16,19.1045695 0,18 L0,2 C-1.3527075e-16,0.8954305 0.8954305,2.02906125e-16 2,0 Z" id="bg" fill-opacity="0" fill="#FFFFFF"></path>
                        <g id="icon" transform="translate(4.000000, 4.000000)">
                            <mask id="mask-2" fill="white">
                                <use xlink:href="#path-1"></use>
                            </mask>
                            <use id="color" fill="#FFFFFF" xlink:href="#path-1"></use>
                        </g>
                    </g>
                </g>
            </g>
        </g>
    </g>
</svg>