<?xml version="1.0" encoding="UTF-8"?>
<svg width="20px" height="21px" viewBox="0 0 20 21" version="1.1" xmlns="http://www.w3.org/2000/svg" xmlns:xlink="http://www.w3.org/1999/xlink">
    <title>下拉</title>
    <g id="页面-1" stroke="none" stroke-width="1" fill="none" fill-rule="evenodd">
        <g id="兼容管控" transform="translate(-1746.000000, -34.000000)" fill-rule="nonzero">
            <g id="编组-38" transform="translate(-0.461667, -1.000000)">
                <g id="编组-43" transform="translate(1689.461667, 33.456653)">
                    <g id="下拉备份" transform="translate(57.000000, 2.500000)">
                        <rect id="矩形" fill-opacity="0.65" fill="#000000" opacity="0" x="0" y="0" width="20" height="20"></rect>
                        <path d="M10.6904297,13.540159 C10.4949219,13.7356668 10.2296875,13.9161356 9.97949219,13.8614481 C9.72792969,13.9038309 9.49140625,13.7083231 9.29589844,13.540159 L3.25703125,7.47394807 C2.95078125,7.16769807 2.95078125,6.66457307 3.25703125,6.35832307 C3.56328125,6.05207307 4.06640625,6.05207307 4.37265625,6.35832307 L9.99316406,12.1319559 L15.6273437,6.35832307 C15.9335938,6.05207307 16.4367188,6.05207307 16.7429687,6.35832307 C17.0492187,6.66457307 17.0492188,7.16769807 16.7429687,7.47394807 L10.6904297,13.540159 Z" id="路径" fill="#FFFFFF"></path>
                    </g>
                </g>
            </g>
        </g>
    </g>
</svg>